<?xml version="1.0" encoding="UTF-8" standalone="no"?>
<svg
   xmlns:dc="http://purl.org/dc/elements/1.1/"
   xmlns:cc="http://creativecommons.org/ns#"
   xmlns:rdf="http://www.w3.org/1999/02/22-rdf-syntax-ns#"
   xmlns:svg="http://www.w3.org/2000/svg"
   xmlns="http://www.w3.org/2000/svg"
   viewBox="0 0 1500 1500"
   height="1500"
   width="1500"
   xml:space="preserve"
   id="svg2"
   version="1.1"><metadata
     id="metadata8"><rdf:RDF><cc:Work
         rdf:about=""><dc:format>image/svg+xml</dc:format><dc:type
           rdf:resource="http://purl.org/dc/dcmitype/StillImage" /></cc:Work></rdf:RDF></metadata><defs
     id="defs6"><clipPath
       id="clipPath22"
       clipPathUnits="userSpaceOnUse"><path
         id="path20"
         d="M 510,563 H 611 V 695.082 H 510 Z" /></clipPath><clipPath
       id="clipPath32"
       clipPathUnits="userSpaceOnUse"><path
         id="path30"
         d="M 430.406,436 H 551 V 552 H 430.406 Z" /></clipPath><clipPath
       id="clipPath42"
       clipPathUnits="userSpaceOnUse"><path
         id="path40"
         d="M 578,429.918 H 694.594 V 551 H 578 Z" /></clipPath><clipPath
       id="clipPath74"
       clipPathUnits="userSpaceOnUse"><path
         id="path72"
         d="m 556,187.5 h 25 V 241 h -25 z" /></clipPath><clipPath
       id="clipPath84"
       clipPathUnits="userSpaceOnUse"><path
         id="path82"
         d="m 612,187.5 h 30 V 245 h -30 z" /></clipPath><clipPath
       id="clipPath134"
       clipPathUnits="userSpaceOnUse"><path
         id="path132"
         d="m 555,884 h 27 v 53.5 h -27 z" /></clipPath></defs><g
     transform="matrix(1.3333333,0,0,1.3333333,0,3.75e-5)"
     id="g10"><g
       id="g12"><path
         id="path14"
         style="fill:#3d4f7d;fill-opacity:1;fill-rule:nonzero;stroke:none"
         d="M 0,0 H 1125 V 1125 H 0 Z" /></g><g
       id="g16"><g
         clip-path="url(#clipPath22)"
         id="g18"><path
           id="path24"
           style="fill:#ffffff;fill-opacity:1;fill-rule:nonzero;stroke:none"
           d="m 604.414,593.559 h -0.211 c -1.453,-0.055 -2.867,0.484 -3.914,1.492 -1.051,1.004 -1.648,2.39 -1.66,3.847 v 31.215 c 0,2.219 -1.797,4.016 -4.016,4.016 -2.215,0 -4.011,-1.797 -4.011,-4.016 v -52.957 c 0,-3.168 -2.571,-5.734 -5.739,-5.734 -3.168,0 -5.734,2.566 -5.734,5.734 v 52.957 c 0,2.219 -1.797,4.016 -4.016,4.016 -2.218,0 -4.015,-1.797 -4.015,-4.016 v -60.82 c 0.058,-1.457 -0.481,-2.879 -1.493,-3.934 -0.988,-1.043 -2.363,-1.632 -3.8,-1.629 h -0.227 c -1.473,0 -2.883,0.59 -3.922,1.633 -1.039,1.047 -1.617,2.461 -1.609,3.934 0,3.812 0.051,8.473 0.051,13.512 0.004,0.129 0.101,0.261 0.101,0.39 v 4.848 c 0,0.066 -0.097,0.148 -0.101,0.211 0,4.519 -0.094,9.203 -0.094,13.711 0.004,14.476 0.004,27.015 0,28.234 -0.004,2.227 -1.789,4.043 -4.016,4.078 h -0.015 c -2.231,-0.043 -4.016,-1.871 -4,-4.105 0.004,-1.207 0,-13.778 0,-28.246 0,-6.297 0,-12.903 -0.004,-18.981 -0.129,-3.031 -2.66,-5.406 -5.696,-5.34 -3.035,0.067 -5.461,2.547 -5.457,5.586 l -0.046,60.782 c -0.004,1.668 -1.04,3.164 -2.602,3.75 -1.563,0.589 -3.324,0.148 -4.43,-1.106 l -7.773,-8.836 c -3.785,-4.273 -10.297,-4.734 -14.645,-1.031 -0.05,0.043 -0.105,0.074 -0.156,0.113 l -0.172,0.11 26.098,46.761 c 3.945,7.035 11.394,11.375 19.461,11.344 h 31.156 c 12.27,0.027 22.238,-9.894 22.277,-22.164 0.028,-26.883 0.051,-56.836 0.012,-73.961 -0.016,-1.461 -0.613,-2.855 -1.66,-3.867 -1.051,-1.016 -2.461,-1.567 -3.922,-1.531" /></g></g><g
       id="g26"><g
         clip-path="url(#clipPath32)"
         id="g28"><path
           id="path34"
           style="fill:#ffffff;fill-opacity:1;fill-rule:nonzero;stroke:none"
           d="m 490.656,533.941 -0.027,-0.031 -15.363,-15.363 c -1.571,-1.567 -1.571,-4.109 0,-5.676 1.566,-1.57 4.109,-1.57 5.675,0 l 37.45,37.445 c 2.183,2.184 5.722,2.184 7.906,0 2.183,-2.179 2.183,-5.722 0,-7.902 l -37.449,-37.449 c -1.567,-1.57 -1.567,-4.11 0,-5.68 1.57,-1.566 4.109,-1.566 5.679,0 l 37.446,37.449 0.015,0.016 5.547,5.543 c 2.18,2.18 5.711,2.18 7.891,0 l 0.156,-0.156 c 2.176,-2.18 2.18,-5.707 0.004,-7.891 l -9.559,-9.558 c -0.093,-0.09 -0.187,-0.18 -0.281,-0.274 l -3.426,-3.426 c -0.047,-0.047 -0.09,-0.093 -0.136,-0.14 l -9.887,-9.883 c -10.133,-10.129 -18.883,-18.871 -19.735,-19.735 -1.562,-1.57 -1.554,-4.113 0.02,-5.675 1.574,-1.563 4.117,-1.555 5.68,0.019 0.84,0.852 9.586,9.59 19.711,19.711 l 13.632,13.625 c 2.239,2.043 5.696,1.926 7.79,-0.265 2.097,-2.188 2.062,-5.649 -0.075,-7.793 L 506.371,467.84 c -1.18,-1.184 -1.504,-2.973 -0.816,-4.492 0.687,-1.524 2.246,-2.461 3.914,-2.352 l 11.742,0.75 c 5.703,0.34 10.629,-3.937 11.086,-9.629 0.004,-0.07 0.012,-0.137 0.019,-0.203 l 0.028,-0.215 -51.551,-14.644 c -7.773,-2.203 -16.129,-0.032 -21.844,5.679 l -22.031,22.028 c -8.676,8.703 -8.684,22.781 -0.016,31.492 19.028,19.066 40.336,40.414 52.407,52.422 2.183,2.164 5.703,2.16 7.879,-0.012 l 0.156,-0.152 c 2.172,-2.18 2.172,-5.707 0,-7.887 z" /></g></g><g
       id="g36"><g
         clip-path="url(#clipPath42)"
         id="g38"><path
           id="path44"
           style="fill:#ffffff;fill-opacity:1;fill-rule:nonzero;stroke:none"
           d="m 666.035,436.43 c -8.699,-8.676 -22.777,-8.684 -31.488,-0.016 -19.067,19.027 -40.414,40.34 -52.422,52.406 -2.164,2.184 -2.16,5.703 0.012,7.879 l 0.148,0.153 c 2.18,2.179 5.711,2.179 7.891,0 l 22.074,-22.075 c 1.57,-1.57 4.109,-1.57 5.68,0 1.566,1.567 1.566,4.11 0,5.676 l -37.45,37.449 c -2.183,2.18 -2.183,5.723 0,7.903 2.184,2.183 5.723,2.183 7.907,0 l 37.449,-37.446 c 1.566,-1.566 4.109,-1.566 5.676,0 1.57,1.571 1.57,4.114 0,5.68 l -43.008,43.008 c -2.176,2.18 -2.176,5.711 0,7.891 l 0.16,0.16 c 2.18,2.172 5.707,2.172 7.887,0 l 9.566,-9.567 c 0.086,-0.093 0.176,-0.183 0.266,-0.273 l 3.429,-3.43 c 0.043,-0.043 0.09,-0.09 0.137,-0.129 l 9.516,-9.523 c 10.32,-10.324 19.234,-19.242 20.105,-20.106 1.012,-1.027 2.5,-1.429 3.895,-1.054 1.394,0.375 2.48,1.468 2.844,2.863 0.363,1.398 -0.051,2.883 -1.082,3.891 -0.864,0.851 -9.77,9.765 -20.082,20.082 l -13.25,13.257 c -2.043,2.239 -1.922,5.7 0.265,7.793 2.188,2.094 5.645,2.059 7.793,-0.074 l 43.012,-42.949 c 1.18,-1.18 2.969,-1.504 4.492,-0.817 1.523,0.688 2.457,2.247 2.352,3.915 l -0.75,11.742 c -0.344,5.703 3.937,10.629 9.629,11.086 0.07,0.004 0.136,0.011 0.203,0.019 l 0.214,0.028 14.645,-51.551 c 2.203,-7.77 0.031,-16.129 -5.68,-21.844 z" /></g></g><g
       id="g46"><path
         id="path48"
         style="fill:#ffffff;fill-opacity:1;fill-rule:nonzero;stroke:none"
         d="m 253.035,466.012 c -0.351,1.121 -0.808,2.449 -1.363,3.984 -0.578,1.527 -1.18,3.063 -1.817,4.59 -0.648,1.527 -1.218,2.887 -1.707,4.078 l -54.617,-17.113 1.864,-5.957 18.398,5.761 c -0.164,-0.953 -0.238,-2.089 -0.227,-3.414 0,-1.343 0.079,-2.761 0.239,-4.246 0.156,-1.488 0.433,-2.871 0.836,-4.152 1.082,-3.445 2.589,-6 4.535,-7.656 1.941,-1.657 4.457,-2.485 7.547,-2.477 3.113,-0.008 6.957,0.707 11.523,2.141 5.09,1.594 8.953,3.398 11.59,5.414 2.629,2.035 4.184,4.558 4.66,7.574 0.473,3.027 -0.012,6.852 -1.461,11.473 z m -5.351,-1.59 c 1.078,-3.449 1.363,-6.192 0.847,-8.238 -0.515,-2.024 -1.797,-3.672 -3.84,-4.95 -2.054,-1.296 -4.836,-2.496 -8.351,-3.597 -3.258,-1.02 -5.977,-1.594 -8.168,-1.723 -2.188,-0.129 -3.969,0.285 -5.344,1.238 -1.351,0.942 -2.371,2.504 -3.058,4.692 -0.375,1.211 -0.661,2.515 -0.852,3.914 -0.188,1.398 -0.293,2.719 -0.316,3.961 -0.024,1.246 0,2.297 0.074,3.168 l 26.461,8.289 c 0.437,-1.035 0.91,-2.242 1.418,-3.621 0.523,-1.371 0.902,-2.414 1.129,-3.133 z" /><path
         id="path50"
         style="fill:#ffffff;fill-opacity:1;fill-rule:nonzero;stroke:none"
         d="m 265.48,431.52 -2.601,5.582 -51.945,-24.243 2.609,-5.582 30.578,14.274 2.383,-5.688 -9.895,-16.972 3,-6.434 11.278,19.473 25.218,-3.168 -3.015,6.457 -21.578,2.797 -2.407,5.859 z" /><path
         id="path52"
         style="fill:#ffffff;fill-opacity:1;fill-rule:nonzero;stroke:none"
         d="m 288.48,390.754 c -0.648,1.043 -1.507,2.258 -2.574,3.648 -1.039,1.379 -2.109,2.735 -3.215,4.055 -1.121,1.309 -2.125,2.477 -3.003,3.504 l -4.376,-3.125 c 0.852,-1.047 1.805,-2.223 2.86,-3.531 1.082,-1.313 2.101,-2.614 3.058,-3.899 0.969,-1.273 1.708,-2.316 2.215,-3.125 1.157,-1.847 1.95,-3.492 2.375,-4.933 0.418,-1.43 0.418,-2.711 0.012,-3.856 -0.426,-1.152 -1.387,-2.195 -2.879,-3.133 -1.121,-0.699 -2.148,-1.007 -3.086,-0.925 -0.929,0.066 -1.996,0.617 -3.211,1.66 -1.211,1.035 -2.758,2.664 -4.644,4.879 -1.992,2.277 -3.817,4.078 -5.485,5.394 -1.679,1.305 -3.382,1.981 -5.101,2.031 -1.735,0.04 -3.727,-0.648 -5.981,-2.054 -2.535,-1.586 -4.156,-3.414 -4.871,-5.489 -0.711,-2.085 -0.777,-4.257 -0.207,-6.519 0.563,-2.242 1.481,-4.383 2.754,-6.418 0.789,-1.262 1.731,-2.606 2.82,-4.043 1.071,-1.43 2.157,-2.805 3.266,-4.125 1.105,-1.316 2.078,-2.441 2.914,-3.363 l 4.461,2.984 c -0.867,0.973 -1.832,2.129 -2.891,3.477 -1.058,1.347 -2.097,2.711 -3.113,4.09 -1.027,1.371 -1.879,2.589 -2.547,3.66 -0.859,1.371 -1.476,2.683 -1.851,3.937 -0.383,1.274 -0.41,2.457 -0.078,3.551 0.316,1.086 1.128,2.039 2.429,2.855 0.996,0.621 1.946,0.887 2.84,0.801 0.902,-0.058 1.953,-0.594 3.145,-1.601 1.191,-1.004 2.742,-2.579 4.644,-4.719 2.211,-2.531 4.188,-4.43 5.934,-5.695 1.726,-1.274 3.441,-1.911 5.148,-1.903 1.692,-0.004 3.645,0.692 5.867,2.082 2.61,1.633 4.371,3.469 5.278,5.512 0.894,2.031 1.058,4.238 0.492,6.633 -0.543,2.387 -1.676,4.953 -3.399,7.703 z" /><path
         id="path54"
         style="fill:#ffffff;fill-opacity:1;fill-rule:nonzero;stroke:none"
         d="m 308.125,361.828 -3.883,4.891 -27.101,-21.512 -3.129,3.941 -4.2,-3.336 3.129,-3.941 -2.757,-2.187 c -3,-2.383 -5.125,-4.516 -6.375,-6.395 -1.231,-1.867 -1.676,-3.684 -1.329,-5.445 0.344,-1.762 1.332,-3.668 2.965,-5.723 0.399,-0.504 0.965,-1.176 1.703,-2.019 0.743,-0.84 1.469,-1.653 2.188,-2.442 0.734,-0.777 1.266,-1.301 1.598,-1.574 l 4.023,3.297 c -0.637,0.711 -1.383,1.594 -2.242,2.644 -0.856,1.055 -1.555,1.918 -2.09,2.59 -0.926,1.16 -1.461,2.235 -1.609,3.219 -0.121,0.98 0.226,2.016 1.043,3.109 0.832,1.106 2.187,2.407 4.07,3.899 l 2.695,2.14 7.149,-9.007 4.199,3.335 -7.149,9.004 z" /><path
         id="path56"
         style="fill:#ffffff;fill-opacity:1;fill-rule:nonzero;stroke:none"
         d="m 346.301,322.961 c -0.91,0.824 -2.063,1.762 -3.465,2.809 -1.375,1.05 -2.774,2.062 -4.199,3.031 -1.434,0.957 -2.715,1.808 -3.844,2.558 l -3.355,-4.191 c 1.097,-0.777 2.335,-1.656 3.707,-2.625 1.398,-0.973 2.73,-1.945 3.996,-2.922 1.281,-0.965 2.277,-1.766 2.984,-2.406 1.613,-1.465 2.824,-2.84 3.625,-4.11 0.789,-1.257 1.141,-2.496 1.055,-3.707 -0.098,-1.222 -0.735,-2.488 -1.918,-3.793 -0.887,-0.976 -1.793,-1.55 -2.719,-1.73 -0.914,-0.187 -2.094,0.055 -3.543,0.727 -1.445,0.671 -3.379,1.816 -5.793,3.437 -2.535,1.656 -4.781,2.891 -6.742,3.703 -1.977,0.801 -3.793,0.992 -5.461,0.57 -1.68,-0.429 -3.41,-1.632 -5.199,-3.597 -2.008,-2.215 -3.075,-4.414 -3.203,-6.602 -0.118,-2.199 0.41,-4.312 1.574,-6.332 1.148,-2.008 2.613,-3.82 4.39,-5.429 1.102,-1 2.371,-2.043 3.813,-3.129 1.418,-1.086 2.836,-2.114 4.258,-3.086 1.422,-0.969 2.66,-1.785 3.722,-2.446 l 3.481,4.082 c -1.098,0.7 -2.34,1.555 -3.727,2.567 -1.386,1.008 -2.754,2.039 -4.105,3.09 -1.36,1.035 -2.508,1.98 -3.445,2.832 -1.196,1.082 -2.145,2.179 -2.844,3.289 -0.719,1.117 -1.067,2.25 -1.043,3.394 0.011,1.133 0.531,2.266 1.566,3.41 0.789,0.868 1.625,1.383 2.516,1.54 0.887,0.187 2.039,-0.04 3.461,-0.688 1.418,-0.645 3.336,-1.738 5.746,-3.281 2.816,-1.84 5.234,-3.129 7.258,-3.875 2.007,-0.758 3.836,-0.906 5.472,-0.438 1.625,0.457 3.321,1.657 5.082,3.598 2.071,2.281 3.266,4.527 3.586,6.738 0.309,2.196 -0.133,4.367 -1.328,6.516 -1.168,2.152 -2.953,4.316 -5.359,6.496 z" /><path
         id="path58"
         style="fill:#ffffff;fill-opacity:1;fill-rule:nonzero;stroke:none"
         d="m 376.887,298.906 c -2.789,1.969 -5.325,2.903 -7.61,2.813 -2.277,-0.078 -4.531,-1.125 -6.761,-3.145 -2.231,-2.015 -4.684,-4.918 -7.356,-8.711 l -12.015,-17.039 5.035,-3.551 12.015,17.039 c 2.032,2.876 3.782,5.075 5.254,6.594 1.481,1.489 2.969,2.282 4.469,2.367 1.496,0.09 3.203,-0.543 5.121,-1.894 1.918,-1.352 3.481,-2.848 4.684,-4.481 1.187,-1.625 2.078,-3.035 2.664,-4.238 l -18.61,-26.39 5.035,-3.547 23.032,32.66 -5.035,3.551 -1.614,-2.293 c -0.832,1.777 -1.863,3.531 -3.082,5.269 -1.222,1.735 -2.965,3.402 -5.226,4.996 z" /><path
         id="path60"
         style="fill:#ffffff;fill-opacity:1;fill-rule:nonzero;stroke:none"
         d="m 417.227,293.957 -5.477,2.828 -26.449,-51.191 5.469,-2.828 1.316,2.539 c 0.523,-0.867 1.234,-1.848 2.137,-2.93 0.894,-1.105 1.918,-2.168 3.058,-3.191 1.153,-1.047 2.336,-1.891 3.559,-2.52 3.031,-1.57 5.824,-2.215 8.375,-1.945 2.539,0.277 4.953,1.508 7.234,3.691 2.293,2.16 4.531,5.352 6.707,9.57 2.403,4.641 3.785,8.622 4.16,11.938 0.356,3.324 -0.304,6.184 -1.976,8.578 -1.676,2.391 -4.328,4.524 -7.961,6.402 -1.465,0.758 -3,1.426 -4.602,2.004 -1.589,0.594 -2.82,1.028 -3.699,1.293 z m -2.645,-23.746 c 2.559,-1.32 4.336,-2.836 5.328,-4.547 1.012,-1.719 1.297,-3.766 0.856,-6.137 -0.45,-2.39 -1.543,-5.261 -3.278,-8.617 -2.472,-4.789 -4.933,-7.793 -7.379,-9.004 -2.433,-1.238 -4.929,-1.199 -7.488,0.121 -1.125,0.582 -2.219,1.336 -3.293,2.258 -1.062,0.903 -2.031,1.836 -2.914,2.809 -0.863,0.961 -1.543,1.84 -2.043,2.636 l 12.246,23.7 c 0.817,-0.297 2.008,-0.727 3.578,-1.289 1.559,-0.579 3.02,-1.223 4.387,-1.93 z" /><path
         id="path62"
         style="fill:#ffffff;fill-opacity:1;fill-rule:nonzero;stroke:none"
         d="m 455.188,276.844 -5.805,2.066 -19.313,-54.289 5.805,-2.066 0.957,2.695 c 0.637,-0.793 1.469,-1.664 2.516,-2.617 1.035,-0.973 2.187,-1.891 3.457,-2.75 1.281,-0.883 2.57,-1.555 3.867,-2.02 3.215,-1.144 6.066,-1.406 8.562,-0.797 2.477,0.618 4.7,2.161 6.668,4.633 1.981,2.449 3.766,5.91 5.36,10.387 1.75,4.922 2.586,9.051 2.511,12.391 -0.097,3.343 -1.132,6.085 -3.117,8.23 -1.98,2.145 -4.898,3.902 -8.75,5.273 -1.551,0.555 -3.164,1.012 -4.824,1.368 -1.66,0.375 -2.937,0.632 -3.84,0.781 z m 0.582,-23.887 c 2.714,-0.961 4.675,-2.227 5.894,-3.785 1.231,-1.567 1.789,-3.559 1.668,-5.969 -0.121,-2.426 -0.816,-5.422 -2.082,-8.976 -1.809,-5.082 -3.84,-8.387 -6.098,-9.922 -2.246,-1.555 -4.722,-1.848 -7.441,-0.883 -1.191,0.422 -2.379,1.023 -3.563,1.793 -1.175,0.746 -2.265,1.547 -3.265,2.39 -0.988,0.836 -1.781,1.614 -2.383,2.333 l 8.945,25.136 c 0.848,-0.183 2.086,-0.449 3.715,-0.793 1.621,-0.367 3.156,-0.804 4.61,-1.324 z" /><path
         id="path64"
         style="fill:#ffffff;fill-opacity:1;fill-rule:nonzero;stroke:none"
         d="m 500.602,246.68 c -4.383,0.906 -7.942,0.859 -10.676,-0.149 -2.742,-1.027 -4.914,-2.972 -6.52,-5.843 -1.605,-2.868 -2.89,-6.657 -3.867,-11.36 -0.93,-4.488 -1.156,-8.308 -0.684,-11.457 0.457,-3.129 1.762,-5.683 3.918,-7.668 2.157,-1.965 5.293,-3.371 9.407,-4.223 4.183,-0.863 7.648,-0.824 10.39,0.129 2.762,0.965 4.989,2.786 6.664,5.473 1.664,2.711 2.961,6.305 3.891,10.797 0.973,4.703 1.293,8.691 0.961,11.961 -0.316,3.269 -1.539,5.918 -3.664,7.949 -2.113,2.012 -5.387,3.477 -9.82,4.391 z m -1.09,-5.25 c 3.035,-0.625 5.199,-1.629 6.488,-3 1.285,-1.391 1.941,-3.285 1.969,-5.688 0.023,-2.402 -0.34,-5.43 -1.094,-9.07 -0.746,-3.61 -1.652,-6.418 -2.727,-8.426 -1.07,-2.004 -2.453,-3.32 -4.156,-3.941 -1.719,-0.617 -3.961,-0.641 -6.726,-0.071 -2.711,0.559 -4.743,1.469 -6.094,2.723 -1.332,1.246 -2.09,3.008 -2.277,5.273 -0.188,2.266 0.093,5.204 0.835,8.817 0.758,3.644 1.622,6.562 2.602,8.758 0.961,2.199 2.309,3.679 4.039,4.445 1.746,0.746 4.125,0.805 7.141,0.18 z" /><path
         id="path66"
         style="fill:#ffffff;fill-opacity:1;fill-rule:nonzero;stroke:none"
         d="m 535.402,240.801 -6.136,0.543 -3.528,-39.809 6.137,-0.543 0.473,5.344 c 0.941,-0.781 2.152,-1.656 3.632,-2.613 1.465,-0.961 3.094,-1.895 4.891,-2.809 1.777,-0.914 3.586,-1.605 5.422,-2.082 l 0.555,6.273 c -1.774,0.543 -3.567,1.2 -5.379,1.969 -1.789,0.785 -3.438,1.582 -4.949,2.399 -1.508,0.832 -2.743,1.558 -3.7,2.175 z" /></g><g
       id="g68"><g
         clip-path="url(#clipPath74)"
         id="g70"><path
           id="path76"
           style="fill:#ffffff;fill-opacity:1;fill-rule:nonzero;stroke:none"
           d="m 572.66,240.703 c -2.769,-0.027 -4.965,-0.484 -6.586,-1.363 -1.625,-0.863 -2.762,-2.352 -3.418,-4.465 -0.676,-2.117 -0.988,-5.09 -0.949,-8.926 l 0.227,-20.844 -5.664,-0.066 0.058,-5.363 5.664,0.062 0.137,-12.238 6.16,0.066 -0.133,12.239 12.539,0.136 -0.058,5.368 -12.543,-0.137 -0.203,19.004 c -0.032,2.824 0.062,5.023 0.281,6.605 0.223,1.578 0.723,2.696 1.508,3.344 0.8,0.648 2.05,0.984 3.754,1.004 0.535,0.004 1.23,-0.016 2.093,-0.059 0.844,-0.047 1.703,-0.113 2.586,-0.195 0.883,-0.063 1.668,-0.121 2.367,-0.164 l 0.332,5.199 c -0.734,0.102 -1.617,0.215 -2.648,0.332 -1.008,0.117 -2.012,0.223 -3,0.324 -0.973,0.098 -1.809,0.145 -2.504,0.137 z" /></g></g><g
       id="g78"><g
         clip-path="url(#clipPath84)"
         id="g80"><path
           id="path86"
           style="fill:#ffffff;fill-opacity:1;fill-rule:nonzero;stroke:none"
           d="m 618.871,244.582 -6.156,-1.043 5.773,-34.117 -4.961,-0.84 0.895,-5.289 4.965,0.84 0.586,-3.469 c 0.64,-3.781 1.484,-6.668 2.527,-8.668 1.043,-1.984 2.418,-3.246 4.129,-3.793 1.715,-0.547 3.859,-0.605 6.445,-0.164 0.629,0.106 1.496,0.281 2.59,0.523 1.09,0.239 2.156,0.485 3.195,0.735 1.032,0.269 1.746,0.484 2.149,0.644 l -0.946,5.11 c -0.933,-0.215 -2.066,-0.442 -3.402,-0.688 -1.332,-0.242 -2.426,-0.437 -3.277,-0.582 -1.465,-0.25 -2.664,-0.199 -3.594,0.145 -0.918,0.363 -1.66,1.172 -2.223,2.414 -0.566,1.262 -1.046,3.078 -1.449,5.445 l -0.578,3.391 11.336,1.918 -0.895,5.289 -11.335,-1.918 z" /></g></g><g
       id="g88"><path
         id="path90"
         style="fill:#ffffff;fill-opacity:1;fill-rule:nonzero;stroke:none"
         d="m 654.09,253.801 c -4.313,-1.207 -7.449,-2.883 -9.418,-5.031 -1.965,-2.168 -3.004,-4.895 -3.11,-8.184 -0.113,-3.285 0.481,-7.242 1.774,-11.867 1.234,-4.414 2.785,-7.914 4.644,-10.5 1.84,-2.567 4.176,-4.239 7,-5.012 2.817,-0.754 6.25,-0.562 10.297,0.566 4.114,1.149 7.172,2.778 9.172,4.875 2.016,2.125 3.156,4.766 3.414,7.926 0.239,3.168 -0.258,6.961 -1.496,11.375 -1.293,4.625 -2.836,8.317 -4.637,11.071 -1.781,2.757 -4.078,4.554 -6.902,5.382 -2.797,0.817 -6.379,0.618 -10.738,-0.601 z m 1.441,-5.168 c 2.985,0.832 5.367,0.937 7.141,0.312 1.781,-0.648 3.234,-2.027 4.359,-4.152 1.125,-2.121 2.192,-4.977 3.192,-8.563 0.992,-3.546 1.476,-6.46 1.441,-8.734 -0.027,-2.273 -0.656,-4.078 -1.883,-5.41 -1.246,-1.336 -3.23,-2.387 -5.949,-3.148 -2.668,-0.743 -4.887,-0.872 -6.664,-0.376 -1.758,0.497 -3.238,1.711 -4.441,3.641 -1.207,1.93 -2.305,4.668 -3.301,8.219 -1,3.582 -1.571,6.574 -1.707,8.976 -0.157,2.395 0.363,4.329 1.547,5.801 1.211,1.461 3.296,2.606 6.265,3.434 z" /><path
         id="path92"
         style="fill:#ffffff;fill-opacity:1;fill-rule:nonzero;stroke:none"
         d="m 692.551,267.68 c -3.137,-1.34 -5.266,-3.008 -6.387,-5 -1.129,-1.977 -1.418,-4.446 -0.875,-7.403 0.547,-2.957 1.731,-6.57 3.555,-10.836 l 8.191,-19.171 5.664,2.418 -8.191,19.175 c -1.383,3.239 -2.332,5.883 -2.852,7.934 -0.492,2.039 -0.386,3.723 0.324,5.043 0.715,1.32 2.149,2.441 4.305,3.367 2.16,0.922 4.25,1.469 6.274,1.633 2.007,0.156 3.675,0.172 5.007,0.043 l 12.688,-29.692 5.664,2.418 -15.703,36.754 -5.664,-2.422 1.101,-2.578 c -1.953,0.223 -3.988,0.27 -6.101,0.141 -2.121,-0.129 -4.453,-0.734 -7,-1.824 z" /><path
         id="path94"
         style="fill:#ffffff;fill-opacity:1;fill-rule:nonzero;stroke:none"
         d="m 727.055,284.281 -5.285,-3.172 20.562,-34.269 5.285,3.172 -1.445,2.402 c 1.047,0.008 2.297,0.129 3.762,0.367 1.437,0.239 2.914,0.594 4.433,1.055 1.528,0.449 2.914,1.043 4.156,1.789 2.372,1.426 4.133,2.895 5.274,4.414 1.141,1.52 1.723,3.203 1.746,5.055 0.035,1.863 -0.41,3.961 -1.336,6.293 -0.926,2.328 -2.297,5 -4.109,8.019 l -10.895,18.16 -5.355,-3.211 10.765,-17.949 c 1.785,-2.968 3.043,-5.457 3.774,-7.457 0.718,-1.984 0.808,-3.683 0.269,-5.097 -0.543,-1.414 -1.867,-2.754 -3.972,-4.02 -1.153,-0.687 -2.403,-1.27 -3.766,-1.746 -1.359,-0.473 -2.688,-0.832 -3.977,-1.07 -1.273,-0.231 -2.367,-0.375 -3.273,-0.426 z" /><path
         id="path96"
         style="fill:#ffffff;fill-opacity:1;fill-rule:nonzero;stroke:none"
         d="m 768.605,314.113 c -1.242,-1 -2.308,-2.086 -3.203,-3.254 -0.91,-1.183 -1.562,-2.472 -1.961,-3.879 -0.386,-1.418 -0.457,-3.007 -0.218,-4.769 0.246,-1.738 0.937,-3.688 2.074,-5.856 1.121,-2.179 2.754,-4.601 4.898,-7.25 2.981,-3.699 5.887,-6.41 8.711,-8.132 2.828,-1.727 5.684,-2.414 8.563,-2.071 2.879,0.34 5.894,1.786 9.051,4.332 0.785,0.633 1.621,1.379 2.507,2.235 0.903,0.843 1.739,1.683 2.52,2.527 0.797,0.856 1.406,1.559 1.832,2.113 l 11.051,-13.703 4.859,3.918 -35.988,44.617 -4.797,-3.867 1.66,-2.054 c -0.957,-0.161 -2.129,-0.461 -3.519,-0.895 -1.391,-0.441 -2.801,-0.988 -4.227,-1.641 -1.414,-0.672 -2.684,-1.461 -3.813,-2.371 z m 4.149,-3.828 c 1.07,0.863 2.258,1.61 3.566,2.238 1.293,0.645 2.563,1.176 3.809,1.59 1.242,0.414 2.289,0.727 3.133,0.934 l 16.816,-20.848 c -0.43,-0.465 -1.039,-1.109 -1.828,-1.937 -0.793,-0.801 -1.617,-1.621 -2.473,-2.453 -0.859,-0.832 -1.668,-1.559 -2.425,-2.168 -2.114,-1.703 -4.133,-2.582 -6.071,-2.637 -1.937,-0.051 -3.898,0.613 -5.886,2 -1.965,1.383 -4.036,3.422 -6.215,6.121 -2.004,2.484 -3.434,4.641 -4.293,6.465 -0.852,1.812 -1.278,3.379 -1.282,4.695 -0.011,1.332 0.282,2.477 0.879,3.426 0.598,0.977 1.356,1.84 2.27,2.574 z" /><path
         id="path98"
         style="fill:#ffffff;fill-opacity:1;fill-rule:nonzero;stroke:none"
         d="m 797.98,341.379 c -2.507,-2.68 -3.66,-5.426 -3.46,-8.246 0.21,-2.836 1.773,-5.617 4.691,-8.352 1.902,-1.777 3.766,-2.898 5.598,-3.355 1.82,-0.473 3.675,-0.34 5.57,0.398 1.91,0.75 3.871,2.039 5.887,3.871 l 9.265,8.168 2.512,-2.351 c 1.996,-1.867 2.992,-3.617 2.996,-5.25 0,-1.637 -0.801,-3.309 -2.402,-5.024 -0.918,-0.976 -2.039,-2.097 -3.375,-3.363 -1.332,-1.262 -2.68,-2.5 -4.043,-3.711 -1.344,-1.223 -2.555,-2.289 -3.629,-3.195 l 3.226,-3.434 c 1.067,0.735 2.313,1.68 3.743,2.828 1.441,1.137 2.906,2.367 4.39,3.688 1.477,1.304 2.778,2.562 3.906,3.765 2.079,2.227 3.434,4.356 4.067,6.403 0.621,2.027 0.543,4.011 -0.234,5.949 -0.778,1.934 -2.239,3.902 -4.379,5.906 l -14.762,13.813 c -0.781,0.883 -1.082,1.808 -0.906,2.773 0.175,0.969 0.64,1.977 1.398,3.024 l -3.723,3.144 c -0.515,-0.547 -0.984,-1.09 -1.406,-1.621 -0.437,-0.547 -0.82,-1.09 -1.152,-1.633 -0.32,-0.531 -0.621,-1.066 -0.903,-1.605 -0.273,-0.699 -0.484,-1.391 -0.628,-2.086 -0.161,-0.703 -0.247,-1.453 -0.258,-2.246 -0.996,-0.449 -2.211,-1.086 -3.637,-1.91 -1.414,-0.813 -2.859,-1.754 -4.34,-2.829 -1.472,-1.062 -2.808,-2.234 -4.012,-3.519 z m 4.512,-2.789 c 0.977,1.047 2.09,2.047 3.344,3.012 1.254,0.937 2.48,1.781 3.691,2.535 1.235,0.754 2.274,1.351 3.114,1.793 l 9.515,-8.91 -8.734,-7.68 c -1.805,-1.606 -3.477,-2.387 -5.02,-2.348 -1.574,0.039 -3.164,0.809 -4.765,2.313 -1.637,1.531 -2.567,3.093 -2.805,4.695 -0.246,1.613 0.309,3.145 1.66,4.59 z" /><path
         id="path100"
         style="fill:#ffffff;fill-opacity:1;fill-rule:nonzero;stroke:none"
         d="m 827.859,377.242 c -1.648,-2.222 -2.613,-4.25 -2.894,-6.074 -0.293,-1.813 0.203,-3.621 1.492,-5.418 1.277,-1.816 3.457,-3.867 6.531,-6.152 l 16.742,-12.426 -3.375,-4.551 4.309,-3.195 3.375,4.551 9.828,-7.297 3.676,4.949 -9.832,7.297 7.477,10.07 -4.309,3.195 -7.477,-10.07 -15.261,11.328 c -2.27,1.68 -3.965,3.09 -5.086,4.219 -1.125,1.133 -1.711,2.207 -1.754,3.219 -0.035,1.031 0.453,2.234 1.469,3.601 0.316,0.426 0.757,0.969 1.312,1.629 0.547,0.645 1.121,1.293 1.719,1.945 0.582,0.665 1.101,1.258 1.562,1.786 l -3.941,3.406 c -0.527,-0.52 -1.149,-1.16 -1.863,-1.906 -0.704,-0.735 -1.395,-1.465 -2.071,-2.196 -0.668,-0.714 -1.211,-1.351 -1.629,-1.91 z" /><path
         id="path102"
         style="fill:#ffffff;fill-opacity:1;fill-rule:nonzero;stroke:none"
         d="m 842.164,396.91 -3.332,-5.183 33.617,-21.61 3.332,5.184 z m 41.024,-26.371 -3.333,-5.184 6.036,-3.878 3.332,5.183 z" /><path
         id="path104"
         style="fill:#ffffff;fill-opacity:1;fill-rule:nonzero;stroke:none"
         d="m 855.062,423.277 c -2.011,-3.996 -2.886,-7.445 -2.624,-10.347 0.281,-2.914 1.593,-5.516 3.953,-7.813 2.355,-2.293 5.679,-4.523 9.964,-6.683 4.094,-2.063 7.723,-3.274 10.891,-3.637 3.141,-0.371 5.945,0.226 8.418,1.797 2.457,1.574 4.629,4.234 6.516,7.988 1.925,3.816 2.781,7.172 2.578,10.066 -0.211,2.918 -1.399,5.54 -3.555,7.86 -2.183,2.312 -5.32,4.496 -9.414,6.558 -4.293,2.164 -8.059,3.508 -11.309,4.032 -3.238,0.543 -6.109,0.05 -8.625,-1.477 -2.488,-1.516 -4.753,-4.297 -6.793,-8.344 z m 4.793,-2.414 c 1.395,2.77 2.922,4.598 4.579,5.489 1.675,0.878 3.679,1.023 6.004,0.421 2.328,-0.597 5.156,-1.73 8.48,-3.406 3.289,-1.66 5.766,-3.265 7.426,-4.82 1.66,-1.551 2.57,-3.235 2.726,-5.035 0.153,-1.824 -0.41,-3.996 -1.679,-6.516 -1.246,-2.473 -2.649,-4.199 -4.211,-5.18 -1.551,-0.964 -3.446,-1.242 -5.684,-0.832 -2.234,0.407 -5,1.442 -8.293,3.098 -3.324,1.676 -5.918,3.27 -7.785,4.785 -1.871,1.496 -2.953,3.184 -3.242,5.051 -0.266,1.879 0.293,4.195 1.679,6.945 z" /><path
         id="path106"
         style="fill:#ffffff;fill-opacity:1;fill-rule:nonzero;stroke:none"
         d="m 869.484,455.121 -2.019,-5.82 37.746,-13.129 2.019,5.82 -2.648,0.922 c 0.801,0.672 1.684,1.566 2.656,2.688 0.95,1.105 1.856,2.324 2.727,3.652 0.887,1.324 1.57,2.668 2.043,4.035 0.91,2.613 1.316,4.871 1.219,6.773 -0.098,1.895 -0.731,3.563 -1.903,4.997 -1.164,1.453 -2.847,2.777 -5.054,3.972 -2.204,1.196 -4.969,2.371 -8.293,3.524 l -20.004,6.961 -2.055,-5.899 19.773,-6.875 c 3.274,-1.14 5.829,-2.242 7.672,-3.308 1.825,-1.063 2.981,-2.309 3.473,-3.743 0.492,-1.433 0.336,-3.312 -0.473,-5.632 -0.437,-1.266 -1.031,-2.516 -1.773,-3.75 -0.742,-1.239 -1.528,-2.36 -2.363,-3.371 -0.832,-0.997 -1.579,-1.801 -2.243,-2.426 z" /><path
         id="path108"
         style="fill:#ffffff;fill-opacity:1;fill-rule:nonzero;stroke:none"
         d="m 213.371,682.887 c -0.351,-1.117 -0.734,-2.469 -1.152,-4.047 -0.399,-1.586 -0.778,-3.188 -1.133,-4.805 -0.332,-1.621 -0.641,-3.062 -0.918,-4.324 l 54.621,-17.109 1.863,5.957 -18.398,5.765 c 0.676,0.692 1.391,1.582 2.133,2.672 0.769,1.106 1.515,2.313 2.23,3.629 0.719,1.313 1.278,2.605 1.68,3.883 1.082,3.445 1.297,6.406 0.648,8.875 -0.648,2.472 -2.246,4.586 -4.789,6.34 -2.554,1.781 -6.113,3.386 -10.679,4.816 -5.094,1.598 -9.297,2.316 -12.614,2.164 -3.316,-0.172 -6.035,-1.355 -8.148,-3.555 -2.113,-2.218 -3.899,-5.64 -5.344,-10.261 z m 5.301,-1.746 c 1.082,3.445 2.414,5.863 4.004,7.25 1.578,1.367 3.574,1.992 5.976,1.875 2.426,-0.11 5.395,-0.711 8.914,-1.813 3.258,-1.023 5.821,-2.101 7.688,-3.246 1.871,-1.145 3.101,-2.5 3.684,-4.066 0.574,-1.543 0.519,-3.411 -0.165,-5.594 -0.378,-1.207 -0.89,-2.442 -1.535,-3.699 -0.644,-1.258 -1.312,-2.407 -2,-3.442 -0.687,-1.031 -1.312,-1.883 -1.867,-2.554 l -26.457,8.289 c 0.231,1.101 0.527,2.363 0.898,3.781 0.348,1.43 0.637,2.5 0.86,3.219 z" /><path
         id="path110"
         style="fill:#ffffff;fill-opacity:1;fill-rule:nonzero;stroke:none"
         d="m 229.266,721.859 -2.61,-5.582 51.946,-24.246 2.605,5.582 -30.582,14.278 2.828,5.48 19.367,3.313 3,6.429 -22.168,-3.859 -13.765,21.363 -3.016,-6.457 11.719,-18.34 -2.953,-5.601 z" /><path
         id="path112"
         style="fill:#ffffff;fill-opacity:1;fill-rule:nonzero;stroke:none"
         d="m 253.25,767.77 c -0.648,-1.043 -1.367,-2.344 -2.156,-3.907 -0.789,-1.543 -1.535,-3.093 -2.239,-4.668 -0.687,-1.582 -1.3,-2.996 -1.835,-4.234 l 4.718,-2.566 c 0.571,1.222 1.211,2.593 1.93,4.113 0.707,1.547 1.43,3.031 2.168,4.453 0.723,1.43 1.336,2.551 1.84,3.355 1.156,1.852 2.293,3.282 3.402,4.297 1.102,1 2.254,1.563 3.465,1.696 1.219,0.121 2.578,-0.286 4.07,-1.219 1.117,-0.699 1.844,-1.492 2.184,-2.371 0.344,-0.867 0.316,-2.074 -0.09,-3.614 -0.406,-1.543 -1.187,-3.644 -2.359,-6.308 -1.18,-2.785 -2,-5.219 -2.453,-7.293 -0.442,-2.082 -0.305,-3.906 0.402,-5.473 0.723,-1.578 2.207,-3.07 4.465,-4.484 2.531,-1.586 4.886,-2.246 7.062,-1.985 2.188,0.274 4.168,1.165 5.953,2.668 1.774,1.485 3.297,3.247 4.571,5.282 0.789,1.258 1.59,2.695 2.402,4.304 0.82,1.586 1.582,3.164 2.281,4.739 0.703,1.57 1.289,2.937 1.754,4.09 l -4.633,2.71 c -0.496,-1.207 -1.117,-2.582 -1.867,-4.125 -0.75,-1.542 -1.523,-3.07 -2.316,-4.585 -0.781,-1.524 -1.508,-2.821 -2.18,-3.891 -0.855,-1.367 -1.769,-2.496 -2.73,-3.387 -0.977,-0.902 -2.032,-1.441 -3.164,-1.621 -1.114,-0.191 -2.321,0.121 -3.629,0.942 -0.993,0.621 -1.649,1.355 -1.961,2.199 -0.34,0.843 -0.321,2.019 0.066,3.527 0.383,1.512 1.121,3.594 2.219,6.238 1.308,3.098 2.152,5.707 2.527,7.828 0.391,2.114 0.211,3.934 -0.539,5.465 -0.734,1.52 -2.215,2.977 -4.437,4.367 -2.614,1.637 -5.036,2.415 -7.266,2.34 -2.215,-0.082 -4.273,-0.906 -6.18,-2.461 -1.91,-1.527 -3.726,-3.671 -5.445,-6.421 z" /><path
         id="path114"
         style="fill:#ffffff;fill-opacity:1;fill-rule:nonzero;stroke:none"
         d="m 276.82,799.496 -3.882,-4.891 27.101,-21.511 -3.129,-3.946 4.203,-3.336 3.125,3.946 2.762,-2.188 c 3,-2.386 5.559,-3.968 7.672,-4.758 2.098,-0.777 3.965,-0.796 5.605,-0.058 1.641,0.734 3.274,2.133 4.903,4.184 0.398,0.503 0.922,1.21 1.578,2.121 0.652,0.91 1.277,1.804 1.883,2.683 0.589,0.891 0.98,1.528 1.168,1.914 l -4.121,3.168 c -0.551,-0.781 -1.239,-1.711 -2.067,-2.785 -0.832,-1.074 -1.512,-1.949 -2.051,-2.621 -0.925,-1.164 -1.847,-1.93 -2.769,-2.297 -0.926,-0.34 -2.016,-0.238 -3.266,0.309 -1.265,0.558 -2.84,1.586 -4.719,3.082 l -2.695,2.136 7.149,9.004 -4.2,3.336 -7.148,-9.004 z" /><path
         id="path116"
         style="fill:#ffffff;fill-opacity:1;fill-rule:nonzero;stroke:none"
         d="m 318.371,844.297 c -0.91,-0.824 -1.953,-1.887 -3.133,-3.18 -1.179,-1.265 -2.316,-2.562 -3.422,-3.883 -1.089,-1.339 -2.062,-2.531 -2.918,-3.578 l 3.848,-3.75 c 0.883,1.02 1.871,2.164 2.973,3.438 1.101,1.297 2.199,2.527 3.293,3.695 1.082,1.184 1.976,2.094 2.683,2.734 1.617,1.465 3.098,2.536 4.442,3.211 1.328,0.661 2.593,0.891 3.789,0.692 1.211,-0.215 2.406,-0.973 3.59,-2.278 0.886,-0.976 1.375,-1.937 1.457,-2.875 0.101,-0.925 -0.254,-2.078 -1.063,-3.453 -0.805,-1.375 -2.133,-3.187 -3.984,-5.433 -1.891,-2.364 -3.34,-4.481 -4.336,-6.352 -0.988,-1.887 -1.356,-3.68 -1.102,-5.379 0.27,-1.715 1.297,-3.554 3.082,-5.523 2.008,-2.215 4.098,-3.492 6.262,-3.828 2.176,-0.328 4.328,-0.008 6.449,0.949 2.114,0.949 4.059,2.23 5.836,3.848 1.102,1 2.262,2.16 3.481,3.488 1.218,1.305 2.379,2.617 3.48,3.941 1.106,1.324 2.035,2.477 2.797,3.465 l -3.727,3.863 c -0.804,-1.027 -1.773,-2.179 -2.914,-3.461 -1.136,-1.281 -2.296,-2.543 -3.472,-3.785 -1.168,-1.254 -2.215,-2.304 -3.153,-3.156 -1.195,-1.086 -2.379,-1.926 -3.55,-2.516 -1.184,-0.605 -2.344,-0.839 -3.481,-0.707 -1.121,0.121 -2.199,0.75 -3.238,1.891 -0.785,0.867 -1.219,1.754 -1.293,2.652 -0.098,0.899 0.242,2.028 1.019,3.379 0.782,1.348 2.055,3.153 3.829,5.403 2.101,2.625 3.621,4.906 4.558,6.847 0.949,1.926 1.27,3.731 0.965,5.406 -0.297,1.665 -1.328,3.465 -3.086,5.407 -2.07,2.281 -4.191,3.687 -6.359,4.222 -2.157,0.52 -4.364,0.289 -6.614,-0.691 -2.254,-0.957 -4.582,-2.523 -6.988,-4.707 z" /><path
         id="path118"
         style="fill:#ffffff;fill-opacity:1;fill-rule:nonzero;stroke:none"
         d="m 352.93,871.535 c -2.785,-1.965 -4.52,-4.043 -5.2,-6.226 -0.691,-2.172 -0.46,-4.645 0.692,-7.422 1.152,-2.782 3.062,-6.063 5.734,-9.856 l 12.02,-17.035 5.035,3.547 -12.016,17.039 c -2.031,2.875 -3.511,5.266 -4.449,7.164 -0.91,1.895 -1.152,3.563 -0.734,5.004 0.422,1.438 1.59,2.836 3.508,4.188 1.918,1.351 3.847,2.324 5.792,2.91 1.93,0.574 3.559,0.937 4.887,1.086 l 18.61,-26.387 5.035,3.551 -23.035,32.66 -5.032,-3.551 1.614,-2.293 c -1.953,-0.187 -3.953,-0.566 -5.996,-1.137 -2.047,-0.566 -4.2,-1.648 -6.465,-3.242 z" /><path
         id="path120"
         style="fill:#ffffff;fill-opacity:1;fill-rule:nonzero;stroke:none"
         d="m 382.664,909.402 -5.473,-2.828 26.454,-51.195 5.472,2.828 -1.312,2.543 c 1.007,-0.078 2.218,-0.062 3.625,0.051 1.418,0.094 2.875,0.304 4.371,0.648 1.523,0.332 2.894,0.813 4.117,1.446 3.027,1.566 5.176,3.468 6.43,5.703 1.242,2.234 1.632,4.91 1.172,8.039 -0.434,3.117 -1.743,6.789 -3.922,11.008 -2.399,4.64 -4.844,8.074 -7.332,10.296 -2.508,2.211 -5.219,3.329 -8.141,3.352 -2.918,0.016 -6.195,-0.914 -9.828,-2.789 -1.465,-0.758 -2.899,-1.621 -4.297,-2.594 -1.406,-0.953 -2.469,-1.711 -3.191,-2.269 z m 17.84,-15.89 c 2.558,1.32 4.82,1.894 6.793,1.715 1.984,-0.172 3.816,-1.122 5.5,-2.856 1.687,-1.75 3.398,-4.301 5.133,-7.656 2.476,-4.789 3.5,-8.531 3.078,-11.227 -0.399,-2.703 -1.879,-4.718 -4.438,-6.039 -1.125,-0.582 -2.371,-1.039 -3.742,-1.379 -1.348,-0.343 -2.676,-0.597 -3.98,-0.754 -1.286,-0.144 -2.395,-0.195 -3.328,-0.144 l -12.25,23.703 c 0.714,0.492 1.753,1.219 3.121,2.172 1.375,0.937 2.746,1.758 4.113,2.465 z" /><path
         id="path122"
         style="fill:#ffffff;fill-opacity:1;fill-rule:nonzero;stroke:none"
         d="m 429.953,930.562 -5.805,-2.066 19.317,-54.289 5.805,2.063 -0.961,2.699 c 0.992,-0.211 2.191,-0.36 3.601,-0.442 1.418,-0.101 2.891,-0.082 4.418,0.051 1.551,0.125 2.977,0.418 4.274,0.879 3.214,1.145 5.593,2.742 7.14,4.789 1.531,2.043 2.281,4.645 2.246,7.805 -0.011,3.148 -0.812,6.961 -2.406,11.437 -1.75,4.922 -3.711,8.653 -5.879,11.192 -2.187,2.531 -4.723,4 -7.613,4.414 -2.891,0.41 -6.262,-0.067 -10.113,-1.438 -1.555,-0.554 -3.09,-1.218 -4.61,-1.992 -1.519,-0.754 -2.676,-1.359 -3.469,-1.816 z m 15.535,-18.148 c 2.715,0.961 5.035,1.227 6.961,0.781 1.946,-0.437 3.637,-1.625 5.067,-3.57 1.437,-1.957 2.789,-4.719 4.054,-8.277 1.809,-5.078 2.321,-8.926 1.535,-11.539 -0.757,-2.625 -2.496,-4.422 -5.207,-5.387 -1.191,-0.422 -2.492,-0.715 -3.898,-0.86 -1.379,-0.16 -2.727,-0.23 -4.039,-0.21 -1.293,0.023 -2.399,0.128 -3.32,0.304 l -8.942,25.137 c 0.774,0.395 1.903,0.969 3.383,1.73 1.488,0.743 2.957,1.375 4.406,1.891 z" /><path
         id="path124"
         style="fill:#ffffff;fill-opacity:1;fill-rule:nonzero;stroke:none"
         d="m 492.18,930.496 c -4.383,-0.906 -7.629,-2.367 -9.742,-4.375 -2.11,-2.027 -3.329,-4.676 -3.665,-7.949 -0.335,-3.27 -0.015,-7.258 0.957,-11.965 0.93,-4.488 2.235,-8.086 3.922,-10.789 1.66,-2.688 3.871,-4.516 6.637,-5.48 2.762,-0.946 6.199,-0.993 10.309,-0.141 4.183,0.867 7.347,2.281 9.488,4.238 2.156,1.981 3.473,4.539 3.949,7.672 0.453,3.148 0.215,6.965 -0.715,11.449 -0.972,4.703 -2.261,8.492 -3.867,11.364 -1.586,2.875 -3.762,4.82 -6.515,5.843 -2.739,1.004 -6.325,1.047 -10.758,0.133 z m 1.086,-5.254 c 3.035,0.629 5.414,0.57 7.14,-0.18 1.731,-0.765 3.086,-2.242 4.067,-4.437 0.976,-2.195 1.843,-5.113 2.601,-8.758 0.746,-3.609 1.024,-6.547 0.84,-8.816 -0.187,-2.266 -0.937,-4.024 -2.254,-5.27 -1.332,-1.246 -3.383,-2.16 -6.148,-2.73 -2.711,-0.563 -4.934,-0.535 -6.672,0.078 -1.723,0.621 -3.117,1.933 -4.184,3.937 -1.074,2.004 -1.98,4.817 -2.73,8.422 -0.754,3.649 -1.114,6.672 -1.09,9.074 0.008,2.399 0.656,4.293 1.945,5.68 1.305,1.375 3.469,2.375 6.485,3 z" /><path
         id="path126"
         style="fill:#ffffff;fill-opacity:1;fill-rule:nonzero;stroke:none"
         d="m 531.875,935.484 -6.137,-0.543 3.528,-39.808 6.136,0.543 -0.472,5.344 c 1.066,-0.606 2.41,-1.254 4.035,-1.938 1.609,-0.684 3.375,-1.32 5.305,-1.902 1.91,-0.586 3.812,-0.95 5.703,-1.098 l -0.555,6.273 c -1.844,0.223 -3.719,0.555 -5.637,0.993 -1.902,0.457 -3.668,0.953 -5.297,1.492 -1.632,0.555 -2.972,1.055 -4.027,1.496 z" /></g><g
       id="g128"><g
         clip-path="url(#clipPath134)"
         id="g130"><path
           id="path136"
           style="fill:#ffffff;fill-opacity:1;fill-rule:nonzero;stroke:none"
           d="m 573.113,937.496 c -2.769,0.031 -4.972,-0.375 -6.613,-1.219 -1.645,-0.824 -2.812,-2.289 -3.516,-4.39 -0.718,-2.098 -1.101,-5.067 -1.14,-8.899 l -0.227,-20.847 -5.668,0.062 -0.058,-5.363 5.668,-0.063 -0.137,-12.242 6.16,-0.066 0.137,12.242 12.539,-0.141 0.058,5.368 -12.539,0.136 0.207,19.004 c 0.028,2.824 0.172,5.024 0.43,6.598 0.254,1.574 0.781,2.679 1.574,3.308 0.817,0.633 2.074,0.942 3.782,0.922 0.531,-0.004 1.23,-0.039 2.089,-0.105 0.844,-0.063 1.703,-0.145 2.582,-0.246 0.879,-0.086 1.664,-0.157 2.364,-0.219 l 0.441,5.195 c -0.73,0.117 -1.609,0.246 -2.637,0.387 -1.007,0.137 -2.007,0.27 -2.992,0.391 -0.969,0.117 -1.805,0.183 -2.504,0.187 z" /></g></g><g
       id="g138"><path
         id="path140"
         style="fill:#ffffff;fill-opacity:1;fill-rule:nonzero;stroke:none"
         d="m 625.543,931.305 -6.156,1.043 -5.778,-34.118 -4.964,0.84 -0.895,-5.289 4.965,-0.84 -0.586,-3.472 c -0.641,-3.778 -0.797,-6.781 -0.465,-9.016 0.332,-2.211 1.215,-3.859 2.648,-4.937 1.434,-1.078 3.446,-1.84 6.032,-2.278 0.633,-0.105 1.504,-0.226 2.617,-0.359 1.113,-0.129 2.199,-0.25 3.258,-0.356 1.066,-0.089 1.812,-0.121 2.242,-0.101 l 0.785,5.14 c -0.945,0.106 -2.094,0.262 -3.434,0.469 -1.339,0.207 -2.437,0.387 -3.285,0.531 -1.465,0.247 -2.578,0.688 -3.347,1.317 -0.75,0.648 -1.184,1.648 -1.305,3.012 -0.117,1.375 0.023,3.25 0.422,5.617 l 0.574,3.39 11.336,-1.918 0.898,5.29 -11.339,1.918 z" /><path
         id="path142"
         style="fill:#ffffff;fill-opacity:1;fill-rule:nonzero;stroke:none"
         d="m 665.277,922.707 c -4.308,1.203 -7.863,1.398 -10.66,0.582 -2.805,-0.836 -5.105,-2.629 -6.902,-5.387 -1.797,-2.754 -3.344,-6.445 -4.637,-11.07 -1.234,-4.414 -1.723,-8.207 -1.469,-11.383 0.243,-3.152 1.371,-5.793 3.387,-7.914 2.02,-2.105 5.051,-3.726 9.094,-4.855 4.117,-1.149 7.574,-1.344 10.375,-0.586 2.824,0.769 5.168,2.441 7.027,5.004 1.844,2.586 3.383,6.09 4.621,10.504 1.293,4.628 1.883,8.586 1.774,11.871 -0.094,3.281 -1.133,6.007 -3.114,8.179 -1.968,2.149 -5.132,3.832 -9.496,5.055 z m -1.445,-5.168 c 2.984,-0.832 5.074,-1.98 6.266,-3.434 1.187,-1.472 1.711,-3.41 1.574,-5.808 -0.137,-2.402 -0.707,-5.391 -1.707,-8.977 -0.992,-3.55 -2.094,-6.289 -3.297,-8.218 -1.203,-1.93 -2.676,-3.145 -4.418,-3.649 -1.758,-0.496 -3.996,-0.367 -6.715,0.391 -2.668,0.746 -4.633,1.789 -5.894,3.133 -1.246,1.335 -1.883,3.144 -1.911,5.418 -0.031,2.273 0.45,5.187 1.442,8.738 1,3.582 2.062,6.437 3.191,8.558 1.11,2.129 2.555,3.516 4.332,4.161 1.793,0.621 4.172,0.519 7.137,-0.313 z" /><path
         id="path144"
         style="fill:#ffffff;fill-opacity:1;fill-rule:nonzero;stroke:none"
         d="m 708.883,907.016 c -3.137,1.339 -5.813,1.722 -8.028,1.156 -2.21,-0.551 -4.195,-2.047 -5.957,-4.484 -1.757,-2.438 -3.55,-5.79 -5.375,-10.059 l -8.191,-19.168 5.664,-2.422 8.195,19.168 c 1.383,3.242 2.637,5.754 3.762,7.547 1.133,1.769 2.422,2.851 3.871,3.254 1.446,0.398 3.25,0.137 5.41,-0.785 2.157,-0.922 3.996,-2.059 5.512,-3.407 1.504,-1.339 2.664,-2.535 3.492,-3.586 l -12.687,-29.695 5.664,-2.418 15.703,36.75 -5.664,2.422 -1.102,-2.582 c -1.183,1.563 -2.558,3.066 -4.117,4.512 -1.555,1.441 -3.605,2.707 -6.152,3.797 z" /><path
         id="path146"
         style="fill:#ffffff;fill-opacity:1;fill-rule:nonzero;stroke:none"
         d="m 747.617,886.469 -5.281,3.168 -20.563,-34.27 5.282,-3.168 1.445,2.406 c 0.496,-0.921 1.195,-1.968 2.09,-3.148 0.887,-1.156 1.894,-2.293 3.015,-3.414 1.118,-1.141 2.293,-2.082 3.536,-2.824 2.371,-1.426 4.5,-2.281 6.379,-2.578 1.875,-0.293 3.636,-0.012 5.281,0.839 1.664,0.844 3.301,2.219 4.922,4.137 1.621,1.914 3.336,4.383 5.144,7.403 l 10.899,18.16 -5.356,3.211 -10.765,-17.95 c -1.786,-2.968 -3.387,-5.25 -4.809,-6.832 -1.414,-1.57 -2.871,-2.449 -4.371,-2.64 -1.504,-0.188 -3.309,0.351 -5.418,1.617 -1.149,0.687 -2.254,1.519 -3.309,2.5 -1.062,0.976 -2,1.976 -2.82,3.004 -0.801,1.015 -1.441,1.914 -1.914,2.691 z" /><path
         id="path148"
         style="fill:#ffffff;fill-opacity:1;fill-rule:nonzero;stroke:none"
         d="m 794.703,854.715 c -1.242,1 -2.527,1.816 -3.863,2.437 -1.348,0.641 -2.746,1.004 -4.203,1.098 -1.469,0.078 -3.035,-0.188 -4.707,-0.797 -1.645,-0.605 -3.407,-1.695 -5.285,-3.265 -1.891,-1.559 -3.911,-3.665 -6.051,-6.321 -2.981,-3.695 -5.02,-7.109 -6.102,-10.238 -1.09,-3.129 -1.16,-6.063 -0.211,-8.805 0.946,-2.742 2.992,-5.383 6.149,-7.929 0.785,-0.629 1.691,-1.293 2.715,-1.977 1.011,-0.699 2.011,-1.344 3.003,-1.93 1,-0.597 1.821,-1.043 2.45,-1.34 l -11.051,-13.703 4.859,-3.918 35.989,44.614 -4.793,3.867 -1.661,-2.055 c -0.355,0.902 -0.894,1.985 -1.617,3.25 -0.726,1.266 -1.554,2.527 -2.5,3.781 -0.953,1.243 -1.992,2.317 -3.121,3.231 z m -2.863,-4.867 c 1.07,-0.86 2.051,-1.868 2.941,-3.008 0.907,-1.133 1.692,-2.258 2.36,-3.387 0.668,-1.129 1.195,-2.082 1.578,-2.863 l -16.824,-20.852 c -0.543,0.317 -1.301,0.778 -2.278,1.379 -0.949,0.602 -1.926,1.235 -2.922,1.899 -0.996,0.66 -1.871,1.296 -2.629,1.906 -2.113,1.703 -3.398,3.496 -3.863,5.379 -0.461,1.879 -0.223,3.941 0.707,6.176 0.938,2.214 2.496,4.668 4.672,7.367 2,2.484 3.805,4.34 5.41,5.566 1.59,1.215 3.028,1.961 4.317,2.242 1.3,0.293 2.476,0.25 3.535,-0.129 1.082,-0.378 2.078,-0.937 2.996,-1.675 z" /><path
         id="path150"
         style="fill:#ffffff;fill-opacity:1;fill-rule:nonzero;stroke:none"
         d="m 828.328,823.5 c -2.508,2.68 -5.172,4.012 -8.004,4 -2.844,-0.023 -5.722,-1.402 -8.64,-4.133 -1.903,-1.777 -3.137,-3.566 -3.719,-5.363 -0.594,-1.785 -0.582,-3.645 0.027,-5.586 0.625,-1.953 1.781,-3.996 3.477,-6.129 l 7.539,-9.785 -2.508,-2.348 c -1.996,-1.867 -3.809,-2.75 -5.438,-2.644 -1.632,0.105 -3.25,1.015 -4.855,2.73 -0.914,0.977 -1.957,2.172 -3.133,3.586 -1.172,1.414 -2.316,2.84 -3.437,4.277 -1.133,1.426 -2.117,2.704 -2.949,3.836 l -3.641,-2.992 c 0.664,-1.113 1.523,-2.422 2.578,-3.922 1.039,-1.511 2.168,-3.054 3.387,-4.625 1.207,-1.558 2.375,-2.937 3.5,-4.144 2.082,-2.223 4.121,-3.715 6.121,-4.485 1.984,-0.75 3.969,-0.804 5.949,-0.156 1.98,0.649 4.043,1.973 6.184,3.981 l 14.757,13.816 c 0.934,0.719 1.875,0.961 2.829,0.723 0.949,-0.239 1.925,-0.774 2.921,-1.594 l 3.387,3.508 c -0.515,0.547 -1.023,1.051 -1.527,1.508 -0.516,0.472 -1.031,0.89 -1.551,1.257 -0.508,0.352 -1.023,0.688 -1.543,1.004 -0.68,0.321 -1.355,0.575 -2.039,0.77 -0.695,0.203 -1.438,0.34 -2.223,0.402 -0.382,1.024 -0.937,2.278 -1.668,3.754 -0.718,1.461 -1.562,2.973 -2.535,4.524 -0.961,1.535 -2.043,2.945 -3.246,4.23 z m -3.082,-4.316 c 0.977,-1.043 1.906,-2.223 2.781,-3.539 0.852,-1.313 1.614,-2.594 2.285,-3.848 0.676,-1.281 1.204,-2.356 1.586,-3.223 l -9.515,-8.91 -7.09,9.223 c -1.481,1.906 -2.152,3.629 -2.008,5.164 0.141,1.566 1.016,3.101 2.621,4.605 1.633,1.528 3.258,2.356 4.871,2.485 1.625,0.14 3.114,-0.512 4.469,-1.957 z" /><path
         id="path152"
         style="fill:#ffffff;fill-opacity:1;fill-rule:nonzero;stroke:none"
         d="m 861.371,784.105 c -1.648,2.223 -3.309,3.731 -4.973,4.528 -1.648,0.808 -3.523,0.855 -5.621,0.144 -2.105,-0.695 -4.699,-2.187 -7.777,-4.472 l -16.742,-12.422 -3.379,4.547 -4.305,-3.196 3.375,-4.55 -9.828,-7.293 3.672,-4.95 9.828,7.293 7.473,-10.07 4.308,3.195 -7.472,10.075 15.261,11.324 c 2.27,1.683 4.106,2.898 5.512,3.648 1.41,0.75 2.606,0.996 3.594,0.746 0.996,-0.265 2.004,-1.082 3.015,-2.453 0.317,-0.426 0.711,-1 1.18,-1.726 0.457,-0.711 0.914,-1.446 1.363,-2.207 0.469,-0.75 0.883,-1.422 1.258,-2.016 l 4.403,2.789 c -0.348,0.656 -0.778,1.434 -1.286,2.336 -0.5,0.887 -1,1.758 -1.5,2.617 -0.492,0.848 -0.941,1.551 -1.359,2.113 z" /><path
         id="path154"
         style="fill:#ffffff;fill-opacity:1;fill-rule:nonzero;stroke:none"
         d="m 875.785,761.176 -3.332,5.183 -33.617,-21.613 3.332,-5.18 z m -41.023,-26.367 -3.332,5.179 -6.035,-3.883 3.328,-5.183 z" /><path
         id="path156"
         style="fill:#ffffff;fill-opacity:1;fill-rule:nonzero;stroke:none"
         d="m 892.188,731.895 c -2.012,3.996 -4.266,6.753 -6.754,8.273 -2.504,1.508 -5.383,2 -8.629,1.473 -3.246,-0.528 -7.012,-1.871 -11.305,-4.032 -4.094,-2.062 -7.23,-4.257 -9.402,-6.586 -2.168,-2.3 -3.356,-4.914 -3.567,-7.832 -0.195,-2.91 0.649,-6.242 2.539,-9.992 1.922,-3.816 4.106,-6.504 6.555,-8.062 2.473,-1.567 5.281,-2.176 8.43,-1.821 3.156,0.375 6.785,1.598 10.875,3.661 4.293,2.16 7.613,4.39 9.968,6.687 2.364,2.277 3.68,4.883 3.95,7.805 0.265,2.906 -0.625,6.379 -2.66,10.426 z m -4.793,-2.415 c 1.394,-2.765 1.957,-5.082 1.683,-6.945 -0.289,-1.867 -1.367,-3.562 -3.234,-5.074 -1.864,-1.512 -4.461,-3.109 -7.785,-4.785 -3.289,-1.656 -6.055,-2.692 -8.293,-3.098 -2.235,-0.406 -4.125,-0.14 -5.672,0.805 -1.555,0.965 -2.965,2.707 -4.235,5.23 -1.246,2.473 -1.797,4.629 -1.656,6.461 0.152,1.824 1.055,3.512 2.715,5.067 1.664,1.554 4.137,3.16 7.43,4.82 3.324,1.672 6.148,2.809 8.476,3.406 2.321,0.613 4.317,0.481 5.992,-0.398 1.668,-0.907 3.196,-2.735 4.579,-5.489 z" /><path
         id="path158"
         style="fill:#ffffff;fill-opacity:1;fill-rule:nonzero;stroke:none"
         d="m 907.238,694.484 -2.027,5.821 -37.746,-13.129 2.023,-5.821 2.653,0.922 c -0.207,-1.023 -0.348,-2.273 -0.414,-3.754 -0.055,-1.457 -0.012,-2.976 0.128,-4.558 0.125,-1.586 0.426,-3.063 0.903,-4.434 0.91,-2.613 1.988,-4.636 3.246,-6.062 1.254,-1.426 2.785,-2.34 4.594,-2.739 1.812,-0.418 3.953,-0.41 6.425,0.02 2.469,0.43 5.368,1.227 8.696,2.383 l 20,6.957 -2.051,5.898 -19.766,-6.875 c -3.273,-1.14 -5.964,-1.863 -8.07,-2.168 -2.09,-0.3 -3.773,-0.039 -5.047,0.778 -1.277,0.82 -2.316,2.39 -3.125,4.707 -0.437,1.265 -0.754,2.613 -0.941,4.043 -0.188,1.429 -0.262,2.8 -0.235,4.113 0.036,1.293 0.121,2.391 0.254,3.289 z" /><path
         id="path160"
         style="fill:#ffffff;fill-opacity:1;fill-rule:nonzero;stroke:none"
         d="m 193.926,568.238 c 0,-12.261 9.941,-22.199 22.199,-22.199 12.262,0 22.199,9.938 22.199,22.199 0,12.262 -9.937,22.2 -22.199,22.2 -12.262,0 -22.199,-9.942 -22.199,-22.2 z" /><path
         id="path162"
         style="fill:#ffffff;fill-opacity:1;fill-rule:nonzero;stroke:none"
         d="m 887.07,568.238 c 0,-12.261 9.942,-22.199 22.2,-22.199 12.261,0 22.199,9.938 22.199,22.199 0,12.262 -9.938,22.2 -22.199,22.2 -12.262,0 -22.2,-9.942 -22.2,-22.2 z" /></g></g></svg>